<?xml version="1.0" standalone="no"?>
<!DOCTYPE svg PUBLIC "-//W3C//DTD SVG 20010904//EN"
 "http://www.w3.org/TR/2001/REC-SVG-20010904/DTD/svg10.dtd">
<svg version="1.0" xmlns="http://www.w3.org/2000/svg"
 width="32.000000pt" height="32.000000pt" viewBox="0 0 300.000000 288.000000"
 preserveAspectRatio="xMidYMid meet">
<metadata>
Created by potrace 1.10, written by Peter Selinger 2001-2011
</metadata>
<g transform="translate(0.000000,288.000000) scale(0.100000,-0.100000)"
fill="#ff007a" stroke="none">
<path d="M1241 2144 c-52 -8 -117 -21 -144 -30 -49 -16 -50 -17 -26 -30 61
-35 135 -49 323 -64 121 -9 524 -14 515 -6 -5 4 -181 16 -334 21 -193 7 -405
31 -422 49 -28 27 106 40 422 41 311 0 393 -5 483 -31 63 -18 63 -21 21 -135
-71 -192 -83 -252 -84 -412 0 -144 1 -149 24 -168 13 -11 39 -19 61 -19 92 0
125 -35 118 -124 -11 -129 -137 -241 -335 -298 -68 -20 -101 -23 -253 -23
-195 0 -256 11 -370 67 -126 62 -214 184 -208 289 4 61 26 83 97 94 59 10 52
-15 -10 -32 -55 -16 -70 -36 -63 -82 15 -95 95 -201 190 -249 186 -95 561
-101 722 -11 36 20 33 19 -40 -7 -63 -23 -168 -36 -298 -36 -149 0 -240 17
-342 65 -108 51 -165 110 -194 204 -17 54 -17 56 2 70 17 13 19 12 22 -6 2
-11 -1 -29 -7 -39 -21 -40 42 -88 154 -119 142 -39 407 -50 557 -23 103 19
212 58 237 84 20 21 23 32 18 67 -3 23 -15 51 -26 62 l-20 20 -94 -31 c-52
-17 -137 -37 -191 -43 -112 -13 -290 -9 -307 8 -9 9 -7 41 6 127 20 129 17
294 -8 466 -8 52 -11 98 -8 101 3 4 89 10 191 14 312 12 330 21 42 21 -268 -1
-273 -1 -267 -21 3 -11 12 -78 21 -150 19 -151 14 -419 -9 -523 -14 -58 -13
-64 2 -70 9 -4 90 -7 181 -7 182 0 293 17 389 61 30 13 55 23 56 22 1 -2 7
-25 14 -52 14 -56 15 -55 -65 -85 -223 -85 -613 -75 -817 20 -27 12 -28 15
-22 63 4 28 9 52 10 54 2 2 21 -6 44 -17 32 -17 145 -50 172 -51 3 0 12 58 19
129 13 125 9 446 -6 579 l-7 52 -45 0 -44 0 6 -32 c47 -227 57 -407 31 -566
-9 -60 -21 -115 -25 -122 -6 -10 -16 -10 -46 3 -45 17 -43 7 -23 175 15 129 7
222 -38 426 -28 128 -35 146 -62 146 -9 0 -33 9 -54 19 -20 10 -37 18 -37 17
0 -1 9 -20 19 -42 91 -189 140 -444 115 -596 -7 -38 -7 -38 -55 -38 -114 0
-166 -50 -155 -147 22 -184 200 -323 466 -364 95 -15 333 -6 418 15 221 55
380 207 383 365 2 88 -31 119 -140 129 l-66 7 -7 80 c-11 141 18 292 97 497
19 50 35 96 35 104 0 30 -91 57 -254 74 -135 14 -538 10 -655 -6z m-86 -229
l6 -40 -26 48 c-15 28 -24 56 -20 65 5 14 9 13 20 -8 7 -14 16 -43 20 -65z
m204 -17 c0 -47 -3 -66 -8 -53 -5 11 -8 34 -7 52 1 17 -2 29 -6 27 -10 -6 -11
30 -1 39 17 18 23 1 22 -65z"/>
<path d="M1628 1701 c-47 -15 -90 -52 -109 -95 -85 -186 142 -353 281 -207 67
70 72 161 14 239 -42 54 -124 82 -186 63z m122 -39 c73 -38 101 -155 53 -221
-38 -50 -83 -73 -136 -68 -83 7 -139 69 -139 152 0 118 119 191 222 137z"/>
<path d="M1601 1600 c-12 -17 -21 -32 -19 -33 1 -1 18 -10 36 -20 27 -15 32
-16 32 -3 0 18 31 29 82 29 21 0 38 3 38 8 0 16 -39 29 -89 29 -27 0 -51 5
-53 11 -2 5 -14 -4 -27 -21z"/>
<path d="M1700 1506 c0 -17 -56 -31 -95 -24 -32 7 -32 -7 0 -28 18 -12 39 -15
70 -12 37 5 45 3 45 -11 0 -11 8 -7 25 14 13 17 24 33 25 36 0 5 -16 14 -62
37 -5 2 -8 -3 -8 -12z"/>
</g>
</svg>
