<?xml version="1.0" standalone="no"?>
<!DOCTYPE svg PUBLIC "-//W3C//DTD SVG 20010904//EN"
 "http://www.w3.org/TR/2001/REC-SVG-20010904/DTD/svg10.dtd">
<svg version="1.0" xmlns="http://www.w3.org/2000/svg"
 width="142.000000pt" height="34.000000pt" viewBox="0 0 142.000000 34.000000"
 preserveAspectRatio="xMidYMid meet">
<metadata>
Created by potrace 1.10, written by Peter Selinger 2001-2011
</metadata>
<g transform="translate(0.000000,34.000000) scale(0.100000,-0.100000)"
fill="#ff007a" stroke="none">
<path d="M639 236 c-16 -7 -24 -20 -24 -36 0 -20 10 -30 49 -48 44 -21 47 -25
33 -39 -22 -22 -65 -10 -69 20 l-3 22 -14 -24 c-17 -30 -3 -41 56 -41 32 0 46
5 57 22 21 30 5 54 -45 69 -44 14 -51 42 -11 47 17 3 25 -2 29 -17 6 -25 19
-27 27 -5 8 21 6 22 -32 33 -19 6 -38 5 -53 -3z"/>
<path d="M107 228 c14 -19 16 -107 2 -124 -9 -11 -6 -14 18 -14 27 0 29 2 25
35 -4 34 -3 35 28 35 32 0 32 -1 27 -35 -5 -33 -4 -35 21 -35 27 0 27 0 27 75
0 74 0 75 -25 75 -23 0 -26 -3 -22 -33 4 -32 2 -34 -28 -34 -30 0 -32 2 -28
34 4 31 2 33 -25 33 -22 0 -27 -3 -20 -12z"/>
<path d="M324 212 c-1 -22 -17 -67 -42 -114 -2 -5 9 -8 23 -8 23 0 25 2 15 15
-16 20 -4 35 30 35 30 0 45 -21 27 -39 -8 -8 -1 -11 27 -11 29 0 36 3 28 13
-5 6 -20 40 -32 75 -20 55 -26 62 -49 62 -21 0 -26 -5 -27 -28z m36 -16 c0 -8
3 -21 6 -30 4 -12 0 -16 -15 -16 -23 0 -24 3 -15 38 7 24 24 30 24 8z"/>
<path d="M450 209 c0 -17 4 -28 10 -24 6 3 10 13 10 21 0 13 10 18 27 12 7 -3
5 -82 -3 -110 -4 -14 1 -18 23 -18 l28 0 -3 70 c-3 58 -1 69 11 64 8 -3 19
-15 25 -27 10 -20 11 -20 11 11 l1 32 -70 0 -70 0 0 -31z"/>
<path d="M764 218 c7 -13 21 -47 31 -75 24 -76 48 -73 65 7 7 33 16 58 20 55
3 -2 12 -29 19 -60 18 -78 41 -76 66 5 10 34 22 63 27 66 17 11 7 24 -18 24
-22 0 -24 -3 -15 -14 9 -11 9 -25 -2 -62 -15 -53 -19 -51 -37 24 -16 70 -42
72 -60 5 -18 -67 -25 -71 -42 -19 -10 31 -12 48 -4 56 7 7 -1 10 -27 10 -36 0
-37 -1 -23 -22z"/>
<path d="M1065 230 c3 -5 -8 -39 -24 -75 l-30 -65 27 0 c19 0 23 3 15 11 -18
18 -3 39 27 39 34 0 46 -15 30 -35 -11 -13 -7 -15 23 -15 l35 0 -31 75 c-25
64 -33 75 -54 75 -13 0 -22 -4 -18 -10z m29 -42 c9 -35 8 -38 -14 -38 -11 0
-20 3 -20 8 0 19 13 52 20 52 4 0 10 -10 14 -22z"/>
<path d="M1198 228 c16 -16 16 -110 0 -126 -9 -9 -3 -12 27 -12 30 0 36 3 27
12 -21 21 -14 48 11 48 26 0 57 28 57 51 0 27 -24 39 -79 39 -43 0 -52 -3 -43
-12z m79 -14 c7 -18 -7 -46 -25 -52 -8 -2 -12 9 -12 32 0 38 25 51 37 20z"/>
</g>
</svg>
